<svg xmlns="http://www.w3.org/2000/svg" width="574.8018798828125" height="260.7938537597656" viewBox="-432.2186279296875 -129.17355346679688 574.8018798828125 260.7938537597656"><title>Neo4j Graph Visualization</title><desc>Created using Neo4j (http://www.neo4j.com/)</desc><g class="layer relationships"><g class="relationship" transform="translate(-396.11008582095917 96.75413922218897) rotate(362.03679089226915)"><path class="b-outline" fill="#A5ABB6" stroke="none" d="M 25 0.5 L 45.06772309689339 0.5 L 45.06772309689339 -0.5 L 25 -0.5 Z M 112.98439103512581 0.5 L 133.0521141320192 0.5 L 133.0521141320192 3.5 L 140.0521141320192 0 L 133.0521141320192 -3.5 L 133.0521141320192 -0.5 L 112.98439103512581 -0.5 Z"/><text text-anchor="middle" pointer-events="none" font-size="8px" fill="#000000" x="79.0260570660096" y="3" font-family="Helvetica Neue, Helvetica, Arial, sans-serif">INHERITS_FROM</text></g><g class="relationship" transform="translate(-231.16224975880314 102.62029280534684) rotate(356.1072388380953)"><path class="b-outline" fill="#A5ABB6" stroke="none" d="M 25 0.5 L 36.242541539722396 0.5 L 36.242541539722396 -0.5 L 25 -0.5 Z M 107.84254001384349 0.5 L 119.08508155356589 0.5 L 119.08508155356589 3.5 L 126.08508155356589 0 L 119.08508155356589 -3.5 L 119.08508155356589 -0.5 L 107.84254001384349 -0.5 Z"/><text text-anchor="middle" pointer-events="none" font-size="8px" fill="#000000" x="72.04254077678294" y="3" font-family="Helvetica Neue, Helvetica, Arial, sans-serif">BORROWS_FROM</text></g><g class="relationship" transform="translate(-80.42574203129695 92.36324127173705) rotate(332.7067681645891)"><path class="b-outline" fill="#A5ABB6" stroke="none" d="M 25 0.5 L 71.69841015769634 0.5 L 71.69841015769634 -0.5 L 25 -0.5 Z M 139.61507809592877 0.5 L 186.3134882536251 0.5 L 186.3134882536251 3.5 L 193.3134882536251 0 L 186.3134882536251 -3.5 L 186.3134882536251 -0.5 L 139.61507809592877 -0.5 Z"/><text text-anchor="middle" pointer-events="none" font-size="8px" fill="#000000" x="105.65674412681255" y="3" font-family="Helvetica Neue, Helvetica, Arial, sans-serif">INHERITS_FROM</text></g><g class="relationship" transform="translate(-88.80502906574628 -100.173551134489) rotate(384.546089891415)"><path class="b-outline" fill="#A5ABB6" stroke="none" d="M 25 0.5 L 73.78954835763919 0.5 L 73.78954835763919 -0.5 L 25 -0.5 Z M 141.70621629587163 0.5 L 190.4957646535108 0.5 L 190.4957646535108 3.5 L 197.4957646535108 0 L 190.4957646535108 -3.5 L 190.4957646535108 -0.5 L 141.70621629587163 -0.5 Z"/><text text-anchor="middle" pointer-events="none" font-size="8px" fill="#000000" x="107.7478823267554" y="3" font-family="Helvetica Neue, Helvetica, Arial, sans-serif">INHERITS_FROM</text></g><g class="relationship" transform="translate(-239.09331644029484 -96.04566026956851) rotate(358.4266819410011)"><path class="b-outline" fill="#A5ABB6" stroke="none" d="M 25 0.5 L 35.87248376863707 0.5 L 35.87248376863707 -0.5 L 25 -0.5 Z M 107.47248224275816 0.5 L 118.34496601139523 0.5 L 118.34496601139523 3.5 L 125.34496601139523 0 L 118.34496601139523 -3.5 L 118.34496601139523 -0.5 L 107.47248224275816 -0.5 Z"/><text text-anchor="middle" pointer-events="none" font-size="8px" fill="#000000" x="71.67248300569761" y="3" font-family="Helvetica Neue, Helvetica, Arial, sans-serif">BORROWS_FROM</text></g><g class="relationship" transform="translate(-403.2186210089209 -97.43419352304234) rotate(360.48472231218693)"><path class="b-outline" fill="#A5ABB6" stroke="none" d="M 25 0.5 L 44.607255080649736 0.5 L 44.607255080649736 -0.5 L 25 -0.5 Z M 112.52392301888216 0.5 L 132.1311780995319 0.5 L 132.1311780995319 3.5 L 139.1311780995319 0 L 132.1311780995319 -3.5 L 132.1311780995319 -0.5 L 112.52392301888216 -0.5 Z"/><text text-anchor="middle" pointer-events="none" font-size="8px" fill="#000000" x="78.56558904976595" y="3" font-family="Helvetica Neue, Helvetica, Arial, sans-serif">INHERITS_FROM</text></g></g><g class="layer nodes"><g class="node" aria-label="graph-node5961" transform="translate(-396.11008582095917,96.75413922218897)"><circle class="b-outline" cx="0" cy="0" r="25" fill="#F79767" stroke="#f36924" stroke-width="2px"/><text class="caption" text-anchor="middle" pointer-events="none" x="0" y="5" font-size="10px" fill="#FFFFFF" font-family="Helvetica Neue, Helvetica, Arial, sans-serif"> poison</text></g><g class="node" aria-label="graph-node372385" transform="translate(-231.16224975880314,102.62029280534684)"><circle class="b-outline" cx="0" cy="0" r="25" fill="#F79767" stroke="#f36924" stroke-width="2px"/><text class="caption" text-anchor="middle" pointer-events="none" x="0" y="5" font-size="10px" fill="#FFFFFF" font-family="Helvetica Neue, Helvetica, Arial, sans-serif"> poisoun</text></g><g class="node" aria-label="graph-node149091" transform="translate(-80.42574203129695,92.36324127173705)"><circle class="b-outline" cx="0" cy="0" r="25" fill="#F79767" stroke="#f36924" stroke-width="2px"/><text class="caption" text-anchor="middle" pointer-events="none" x="0" y="5" font-size="10px" fill="#FFFFFF" font-family="Helvetica Neue, Helvetica, Arial, sans-serif"> poison</text></g><g class="node" aria-label="graph-node903849" transform="translate(113.58321235771609,-7.7432259037035465)"><circle class="b-outline" cx="0" cy="0" r="25" fill="#F79767" stroke="#f36924" stroke-width="2px"/><text class="caption" text-anchor="middle" pointer-events="none" x="0" y="5" font-size="10px" fill="#FFFFFF" font-family="Helvetica Neue, Helvetica, Arial, sans-serif"> pōtiō</text></g><g class="node" aria-label="graph-node204853" transform="translate(-88.80502906574628,-100.173551134489)"><circle class="b-outline" cx="0" cy="0" r="25" fill="#F79767" stroke="#f36924" stroke-width="2px"/><text class="caption" text-anchor="middle" pointer-events="none" x="0" y="5" font-size="10px" fill="#FFFFFF" font-family="Helvetica Neue, Helvetica, Arial, sans-serif"> pocion</text></g><g class="node" aria-label="graph-node903842" transform="translate(-239.09331644029484,-96.04566026956851)"><circle class="b-outline" cx="0" cy="0" r="25" fill="#F79767" stroke="#f36924" stroke-width="2px"/><text class="caption" text-anchor="middle" pointer-events="none" x="0" y="5" font-size="10px" fill="#FFFFFF" font-family="Helvetica Neue, Helvetica, Arial, sans-serif"> pocioun</text></g><g class="node" aria-label="graph-node52024" transform="translate(-403.2186210089209,-97.43419352304234)"><circle class="b-outline" cx="0" cy="0" r="25" fill="#F79767" stroke="#f36924" stroke-width="2px"/><text class="caption" text-anchor="middle" pointer-events="none" x="0" y="5" font-size="10px" fill="#FFFFFF" font-family="Helvetica Neue, Helvetica, Arial, sans-serif"> potion</text></g></g></svg>