<svg xmlns="http://www.w3.org/2000/svg" width="608.429443359375" height="64.95693969726562" viewBox="-454.7572021484375 -42.65989685058594 608.429443359375 64.95693969726562"><title>Neo4j Graph Visualization</title><desc>Created using Neo4j (http://www.neo4j.com/)</desc><g class="layer relationships"><g class="relationship" transform="translate(-425.7571939084038 -13.659895377483139) rotate(360.1332814378404)"><path class="b-outline" fill="#A5ABB6" stroke="none" d="M 25 0.5 L 35.7270065408124 0.5 L 35.7270065408124 -0.5 L 25 -0.5 Z M 103.64367447904482 0.5 L 114.37068101985722 0.5 L 114.37068101985722 3.5 L 121.37068101985722 0 L 114.37068101985722 -3.5 L 114.37068101985722 -0.5 L 103.64367447904482 -0.5 Z"/><text text-anchor="middle" pointer-events="none" font-size="8px" fill="#000000" x="69.68534050992861" y="3" font-family="Helvetica Neue, Helvetica, Arial, sans-serif">INHERITS_FROM</text></g><g class="relationship" transform="translate(-137.16825435094185 -7.36965380837745) rotate(358.9651698778748)"><path class="b-outline" fill="#A5ABB6" stroke="none" d="M 25 0.5 L 32.46441665930071 0.5 L 32.46441665930071 -0.5 L 25 -0.5 Z M 100.38108459753313 0.5 L 107.84550125683384 0.5 L 107.84550125683384 3.5 L 114.84550125683384 0 L 107.84550125683384 -3.5 L 107.84550125683384 -0.5 L 100.38108459753313 -0.5 Z"/><text text-anchor="middle" pointer-events="none" font-size="8px" fill="#000000" x="66.42275062841692" y="3" font-family="Helvetica Neue, Helvetica, Arial, sans-serif">INHERITS_FROM</text></g><g class="relationship" transform="translate(-279.38690890932736 -13.31940821777036) rotate(362.3955869155848)"><path class="b-outline" fill="#A5ABB6" stroke="none" d="M 25 0.5 L 31.871528219376472 0.5 L 31.871528219376472 -0.5 L 25 -0.5 Z M 103.47152669349757 0.5 L 110.34305491287404 0.5 L 110.34305491287404 3.5 L 117.34305491287404 0 L 110.34305491287404 -3.5 L 110.34305491287404 -0.5 L 103.47152669349757 -0.5 Z"/><text text-anchor="middle" pointer-events="none" font-size="8px" fill="#000000" x="67.67152745643702" y="3" font-family="Helvetica Neue, Helvetica, Arial, sans-serif">BORROWS_FROM</text></g><g class="relationship" transform="translate(2.6544382571407255 -9.895293054343632) rotate(361.498679005249)"><path class="b-outline" fill="#A5ABB6" stroke="none" d="M 25 0.5 L 48.16311601950844 0.5 L 48.16311601950844 -0.5 L 25 -0.5 Z M 66.89644960715492 0.5 L 90.05956562666337 0.5 L 90.05956562666337 3.5 L 97.05956562666337 0 L 90.05956562666337 -3.5 L 90.05956562666337 -0.5 L 66.89644960715492 -0.5 Z"/><text text-anchor="middle" pointer-events="none" font-size="8px" fill="#000000" x="57.529782813331686" y="3" font-family="Helvetica Neue, Helvetica, Arial, sans-serif">der</text></g></g><g class="layer nodes"><g class="node" aria-label="graph-node52024" transform="translate(-425.7571939084038,-13.659895377483139)"><circle class="b-outline" cx="0" cy="0" r="25" fill="#F79767" stroke="#f36924" stroke-width="2px"/><text class="caption" text-anchor="middle" pointer-events="none" x="0" y="5" font-size="10px" fill="#FFFFFF" font-family="Helvetica Neue, Helvetica, Arial, sans-serif"> potion</text></g><g class="node" aria-label="graph-node204853" transform="translate(-137.16825435094185,-7.36965380837745)"><circle class="b-outline" cx="0" cy="0" r="25" fill="#F79767" stroke="#f36924" stroke-width="2px"/><text class="caption" text-anchor="middle" pointer-events="none" x="0" y="5" font-size="10px" fill="#FFFFFF" font-family="Helvetica Neue, Helvetica, Arial, sans-serif"> pocion</text></g><g class="node" aria-label="graph-node372118" transform="translate(124.67225075311353,-6.702959320636383)"><circle class="b-outline" cx="0" cy="0" r="25" fill="#F79767" stroke="#f36924" stroke-width="2px"/><text class="caption" text-anchor="middle" pointer-events="none" x="0" y="5" font-size="10px" fill="#FFFFFF" font-family="Helvetica Neue, Helvetica, Arial, sans-serif"> pōtō</text></g><g class="node" aria-label="graph-node903480" transform="translate(-279.38690890932736,-13.31940821777036)"><circle class="b-outline" cx="0" cy="0" r="25" fill="#F79767" stroke="#f36924" stroke-width="2px"/><text class="caption" text-anchor="middle" pointer-events="none" x="0" y="5" font-size="10px" fill="#FFFFFF" font-family="Helvetica Neue, Helvetica, Arial, sans-serif"> pocioun</text></g><g class="node" aria-label="graph-node903487" transform="translate(2.6544382571407255,-9.895293054343632)"><circle class="b-outline" cx="0" cy="0" r="25" fill="#F79767" stroke="#f36924" stroke-width="2px"/><text class="caption" text-anchor="middle" pointer-events="none" x="0" y="5" font-size="10px" fill="#FFFFFF" font-family="Helvetica Neue, Helvetica, Arial, sans-serif"> pōtiō</text></g></g></svg>